<?xml version="1.0" standalone="no"?>
<!DOCTYPE svg PUBLIC "-//W3C//DTD SVG 20010904//EN"
 "http://www.w3.org/TR/2001/REC-SVG-20010904/DTD/svg10.dtd">
<svg version="1.0" xmlns="http://www.w3.org/2000/svg"
 width="1200.000000pt" height="1200.000000pt" viewBox="0 0 1200.000000 1200.000000"
 preserveAspectRatio="xMidYMid meet">
<metadata>
Created by potrace 1.11, written by Peter Selinger 2001-2013
</metadata>
<g transform="translate(0.000000,1200.000000) scale(0.100000,-0.100000)"
fill="#000000" stroke="none">
<path d="M2553 9423 c38 -70 174 -432 196 -521 6 -20 26 -100 46 -177 20 -77
38 -149 40 -160 1 -11 7 -47 14 -80 6 -33 13 -89 17 -125 3 -36 7 -66 9 -68 3
-3 15 22 95 193 23 50 60 130 83 178 l42 88 1379 -1375 1378 -1376 -1211
-1207 c-666 -664 -1219 -1209 -1228 -1211 -10 -2 -111 -4 -225 -6 l-208 -2
-360 -359 c-198 -198 -360 -363 -360 -366 0 -6 84 -5 408 5 l93 2 343 343 343
342 44 -40 44 -40 -343 -344 -344 -344 -2 -252 c-1 -139 1 -254 4 -256 4 -2
170 161 371 363 l364 367 0 228 0 227 1201 1200 c660 660 1205 1200 1210 1200
5 0 552 -544 1215 -1208 l1207 -1207 3 -60 c1 -33 2 -132 1 -220 l-1 -160 362
-362 c199 -200 365 -363 368 -363 3 0 4 48 3 108 -2 59 -5 172 -7 251 l-4 143
-344 344 -343 343 42 43 42 42 344 -343 344 -344 256 -3 c141 -1 256 1 256 4
0 4 -164 170 -363 369 l-363 363 -230 0 -229 1 -1208 1205 -1208 1205 1378
1375 1378 1375 22 -48 c13 -26 54 -113 91 -193 38 -80 77 -163 88 -185 l19
-40 7 65 c6 62 10 93 23 170 15 88 78 329 123 465 47 143 136 379 152 400 4 6
10 22 13 36 l7 26 -125 -53 c-69 -30 -131 -54 -138 -54 -7 0 -17 -4 -23 -9
-12 -12 -200 -72 -354 -115 -158 -43 -224 -58 -310 -71 -20 -3 -46 -7 -59 -10
-13 -2 -49 -7 -80 -11 -31 -3 -57 -7 -58 -8 -2 -2 63 -34 144 -72 81 -38 185
-87 230 -109 l83 -40 -1363 -1360 c-749 -748 -1370 -1366 -1379 -1373 -15 -12
-172 141 -1393 1360 l-1376 1373 83 40 c46 22 150 72 232 110 l150 70 -90 13
c-174 24 -240 38 -454 95 -148 40 -380 124 -583 211 l-39 17 15 -28z"/>
<path d="M5332 8970 c4 -292 6 -330 23 -370 54 -128 147 -215 274 -256 l66
-21 0 -118 c0 -95 -2 -118 -15 -124 -8 -3 -63 -6 -122 -5 l-108 1 0 -61 0 -62
305 0 305 0 0 62 0 62 -92 0 c-51 0 -106 0 -123 1 l-30 1 2 103 c2 155 1 147
24 147 68 0 211 94 264 173 73 110 77 135 78 482 l1 310 -428 0 -427 0 3 -325z
m706 201 l23 -1 -3 -252 c-3 -242 -4 -255 -27 -300 -73 -149 -259 -215 -404
-145 -68 34 -129 101 -156 171 -17 45 -19 79 -20 291 l-2 240 283 -2 c156 -1
293 -2 306 -2z"/>
<path d="M6309 9286 c-1 -6 -2 -102 -3 -213 l-1 -203 46 0 c72 0 74 4 76 227
1 106 -1 193 -5 194 -45 7 -112 4 -113 -5z"/>
<path d="M6549 9080 c-1 -255 -1 -256 -22 -296 -34 -65 -92 -96 -187 -99 l-35
-1 -1 -354 c0 -195 1 -360 3 -366 3 -8 75 -12 112 -6 5 1 9 120 9 265 1 399
-4 353 40 368 68 22 137 83 178 159 17 31 19 63 22 290 l3 256 -60 0 -61 0 -1
-216z"/>
<path d="M2655 6350 c-11 -18 4 -27 40 -25 l35 3 -2 -277 -3 -276 -30 0 c-30
1 -48 -12 -39 -27 3 -4 45 -8 95 -8 72 0 89 3 89 15 0 15 -4 16 -50 19 l-25 1
0 262 c0 144 1 260 2 259 1 -1 54 -123 116 -271 63 -148 119 -271 125 -273 5
-1 33 57 62 130 29 73 58 147 66 163 7 17 27 66 44 110 64 160 60 168 59 -121
l0 -261 -22 0 c-46 -1 -54 -3 -54 -18 0 -13 22 -15 134 -15 122 0 133 2 133
18 0 15 -7 18 -40 15 l-40 -3 -1 73 c0 75 0 372 1 444 0 42 0 42 35 39 30 -2
45 8 45 30 0 2 -47 4 -104 4 l-104 0 -76 -192 c-41 -106 -80 -206 -86 -222 -6
-17 -14 -25 -19 -20 -5 5 -37 81 -71 169 -35 88 -66 165 -70 170 -3 6 -12 29
-20 53 l-13 42 -103 0 c-58 0 -106 -4 -109 -10z"/>
<path d="M8503 6345 c0 -16 6 -18 49 -17 l28 1 -1 -278 -2 -278 -26 -1 c-44 0
-48 -1 -48 -17 0 -12 17 -15 94 -15 85 0 94 2 91 18 -2 9 -10 16 -18 14 -8 -2
-23 -1 -34 2 -21 5 -21 11 -21 256 0 137 2 250 5 250 3 0 56 -118 117 -262 61
-144 115 -264 120 -265 6 -2 16 11 23 29 7 18 21 51 30 73 9 22 53 130 96 239
l79 199 3 -249 c1 -137 0 -255 -3 -262 -3 -8 -15 -12 -34 -9 -28 5 -49 -12
-34 -27 4 -3 64 -6 135 -6 107 0 128 2 128 15 0 14 -16 19 -52 16 -9 -1 -21 6
-25 16 -6 13 -10 455 -4 529 1 7 15 11 36 9 31 -2 53 14 38 29 -4 3 -50 6
-103 6 l-97 0 -76 -192 c-42 -106 -81 -206 -87 -222 -6 -17 -14 -25 -19 -20
-4 5 -46 105 -92 221 l-84 213 -106 0 c-87 0 -106 -3 -106 -15z"/>
<path d="M5297 3022 c-32 -6 -19 -32 16 -32 l32 0 -1 -292 c-1 -161 -2 -296
-3 -300 0 -5 -14 -8 -31 -8 -20 0 -30 -5 -30 -15 0 -12 20 -15 120 -15 69 0
120 4 120 10 0 14 -31 28 -51 23 -18 -5 -19 8 -19 311 0 294 -1 316 -17 317
-10 0 -41 1 -69 2 -28 1 -58 1 -67 -1z"/>
<path d="M6201 3017 c-20 -6 -43 -25 -58 -48 -24 -36 -29 -69 -33 -201 0 -5
-13 -8 -30 -8 -20 0 -30 -5 -30 -15 0 -10 10 -15 30 -15 24 0 30 -4 31 -22 0
-37 1 -271 0 -296 -1 -13 -7 -22 -13 -21 -31 4 -48 -2 -48 -16 0 -13 21 -15
125 -15 104 0 125 2 125 15 0 14 -30 21 -67 16 -16 -2 -15 -14 -15 154 0 205
-4 185 42 182 33 -3 40 0 40 15 0 15 -8 18 -42 18 l-43 0 2 77 c2 135 17 166
71 157 35 -7 39 -12 20 -27 -44 -34 -16 -96 36 -83 36 9 46 34 32 76 -19 59
-93 83 -175 57z"/>
<path d="M7577 3020 c-7 -3 -13 -11 -14 -17 -2 -9 11 -13 40 -13 l43 0 0 -130
c0 -113 -2 -130 -16 -124 -114 49 -204 31 -263 -53 -77 -108 -32 -287 81 -324
47 -15 137 -4 174 22 16 11 28 17 27 12 -5 -29 3 -33 81 -33 64 0 80 3 80 15
0 14 -17 20 -47 16 -10 -2 -13 67 -13 314 0 173 -3 315 -7 316 -35 4 -156 3
-166 -1z m31 -307 c15 -9 29 -18 31 -20 11 -8 7 -241 -3 -255 -17 -24 -70 -47
-99 -44 -68 8 -97 59 -97 174 0 66 15 116 44 145 23 22 88 22 124 0z"/>
<path d="M4204 2943 c2 -14 11 -18 38 -16 l35 2 0 -267 0 -268 -36 -3 c-40 -2
-46 -5 -36 -20 10 -16 186 -15 183 2 -2 6 -19 14 -38 17 l-35 5 -1 255 -1 255
18 -40 c29 -62 70 -156 145 -332 38 -90 74 -163 80 -163 6 0 15 15 21 33 6 17
54 138 107 267 l96 235 0 -258 c0 -240 -1 -258 -17 -256 -37 3 -53 -1 -53 -16
0 -13 21 -15 130 -15 109 0 130 2 130 15 0 14 -22 20 -62 16 -17 -2 -18 17
-18 269 l0 272 37 -4 c28 -2 37 1 39 15 2 15 -9 17 -99 17 l-102 0 -39 -98
c-21 -53 -44 -110 -51 -127 -7 -16 -28 -66 -45 -110 -18 -44 -36 -83 -39 -87
-3 -4 -45 89 -92 205 l-86 212 -105 3 c-97 2 -106 1 -104 -15z"/>
<path d="M5096 2937 c-39 -28 -13 -97 36 -97 28 0 57 35 51 62 -11 44 -52 61
-87 35z"/>
<path d="M5720 2763 c-68 -19 -102 -38 -115 -64 -9 -16 -16 -31 -18 -33 -1 -2
7 -13 17 -25 21 -23 65 -28 84 -9 16 16 15 51 0 66 -32 32 74 45 111 15 17
-15 22 -31 25 -86 3 -74 0 -83 -22 -64 -9 7 -44 12 -86 12 -81 0 -120 -19
-141 -68 -34 -80 44 -164 144 -155 26 3 62 12 80 21 31 16 34 15 61 -5 32 -24
92 -20 119 6 19 20 8 31 -18 17 -14 -8 -22 -8 -27 0 -3 6 -7 73 -8 148 -1 124
-3 139 -24 168 -12 17 -37 36 -55 42 -37 12 -105 20 -127 14z m90 -238 c10 -9
16 -30 15 -56 0 -46 -27 -75 -78 -84 -54 -10 -92 57 -68 119 17 43 93 56 131
21z"/>
<path d="M6494 2749 c-83 -35 -124 -101 -124 -200 0 -170 215 -261 346 -147
100 88 86 262 -26 331 -57 34 -138 41 -196 16z m133 -34 c38 -27 52 -115 41
-252 -2 -25 -54 -73 -83 -78 -63 -10 -100 42 -104 147 -4 92 6 142 34 172 28
30 78 35 112 11z"/>
<path d="M6980 2754 c-53 -15 -105 -62 -127 -113 -15 -37 -13 -168 4 -180 4
-3 13 -15 19 -26 20 -37 87 -76 140 -81 136 -15 236 72 236 206 0 147 -126
237 -272 194z m123 -42 c27 -30 39 -75 39 -148 0 -102 -17 -149 -59 -169 -42
-20 -78 -10 -107 29 -18 23 -21 44 -23 126 -3 138 19 179 98 180 22 0 42 -7
52 -18z"/>
<path d="M5020 2742 c0 -14 7 -18 29 -16 l30 2 -2 -167 -2 -166 -31 0 c-21 0
-30 -5 -31 -17 -2 -16 10 -18 118 -18 97 0 119 3 119 14 0 9 -12 16 -32 18
l-33 3 -2 175 c-1 96 -2 178 -2 183 -1 4 -37 7 -81 7 -70 0 -80 -2 -80 -18z"/>
</g>
</svg>
